<?xml version="1.0" encoding="utf-8"?>
<!-- Generator: Adobe Illustrator 25.1.0, SVG Export Plug-In . SVG Version: 6.00 Build 0)  -->
<svg version="1.1" id="Слой_1" xmlns="http://www.w3.org/2000/svg" xmlns:xlink="http://www.w3.org/1999/xlink" x="0px" y="0px"
	 viewBox="0 0 64 64" style="enable-background:new 0 0 64 64;" xml:space="preserve">
<style type="text/css">
	.st0{fill:#A81F27;}
	.st1{fill:#211E1F;}
</style>
<g>
	<g>
		<rect x="11.7" y="18.7" class="st0" width="14.2" height="6.8"/>
		<rect x="29.2" y="18.7" class="st1" width="14.2" height="6.8"/>
		<rect x="46.8" y="18.7" class="st1" width="14.2" height="6.8"/>
	</g>
	<g>
		<rect x="11.7" y="38.5" class="st0" width="14.2" height="6.8"/>
		<rect x="29.2" y="38.5" class="st1" width="14.2" height="6.8"/>
		<rect x="46.8" y="38.5" class="st1" width="14.2" height="6.8"/>
	</g>
	<g>
		<rect x="38" y="28.6" transform="matrix(-1 -4.216284e-11 4.216284e-11 -1 90.276 64)" class="st0" width="14.2" height="6.8"/>
		
			<rect x="20.5" y="28.6" transform="matrix(-1 -4.216284e-11 4.216284e-11 -1 55.2673 64)" class="st1" width="14.2" height="6.8"/>
		<rect x="3" y="28.6" transform="matrix(-1 -4.216284e-11 4.216284e-11 -1 20.2585 64)" class="st1" width="14.2" height="6.8"/>
	</g>
</g>
</svg>
